HIERARCHY
ROOT joint_Root
{
	OFFSET 0.0 0.0 0.0
	CHANNELS 6 Xposition Yposition Zposition Zrotation Xrotation Yrotation 
	JOINT Hips
	{
		OFFSET -0.726466 93.3139 -2.00062
		CHANNELS 6 Xposition Yposition Zposition Zrotation Xrotation Yrotation 
		JOINT Spine
		{
			OFFSET 15.7357 0.0 0.0
			CHANNELS 6 Xposition Yposition Zposition Zrotation Xrotation Yrotation 
			JOINT Chest
			{
				OFFSET 8.98455 -0.406207 0.0
				CHANNELS 6 Xposition Yposition Zposition Zrotation Xrotation Yrotation 
				JOINT Neck
				{
					OFFSET 16.3773 0.0 0.0
					CHANNELS 6 Xposition Yposition Zposition Zrotation Xrotation Yrotation 
					JOINT Head
					{
						OFFSET 6.45672 0.0 0.0
						CHANNELS 6 Xposition Yposition Zposition Zrotation Xrotation Yrotation 
						End Site
						{
							OFFSET 0.0 0.0 0.0
						}
					}
				}
				JOINT Shoulder_L
				{
					OFFSET 12.9942 -0.242716 4.98039
					CHANNELS 6 Xposition Yposition Zposition Zrotation Xrotation Yrotation 
					JOINT UpperArm_L
					{
						OFFSET 5.34809 0.0 0.0
						CHANNELS 6 Xposition Yposition Zposition Zrotation Xrotation Yrotation 
						JOINT LowerArm_L
						{
							OFFSET 24.3286 1.87007e-05 0.0
							CHANNELS 6 Xposition Yposition Zposition Zrotation Xrotation Yrotation 
							JOINT Hand_L
							{
								OFFSET 22.2916 0.0 0.0
								CHANNELS 6 Xposition Yposition Zposition Zrotation Xrotation Yrotation 
								End Site
								{
									OFFSET 0.0 0.0 0.0
								}
							}
						}
					}
				}
				JOINT Shoulder_R
				{
					OFFSET 12.9945 -0.242716 -4.98039
					CHANNELS 6 Xposition Yposition Zposition Zrotation Xrotation Yrotation 
					JOINT UpperArm_R
					{
						OFFSET -5.34813 0.0 0.0
						CHANNELS 6 Xposition Yposition Zposition Zrotation Xrotation Yrotation 
						JOINT LowerArm_R
						{
							OFFSET -24.3289 0.000322201 0.0
							CHANNELS 6 Xposition Yposition Zposition Zrotation Xrotation Yrotation 
							JOINT Hand_R
							{
								OFFSET -22.2915 -0.000108084 0.0
								CHANNELS 6 Xposition Yposition Zposition Zrotation Xrotation Yrotation 
								End Site
								{
									OFFSET 0.0 0.0 0.0
								}
							}
						}
					}
				}
			}
		}
		JOINT UpperLeg_L
		{
			OFFSET -2.19248 -6.46944 0.0
			CHANNELS 6 Xposition Yposition Zposition Zrotation Xrotation Yrotation 
			JOINT LowerLeg_L
			{
				OFFSET 39.0811 0.0 -1.23785e-05
				CHANNELS 6 Xposition Yposition Zposition Zrotation Xrotation Yrotation 
				JOINT Foot_L
				{
					OFFSET 40.9854 0.0 -1.26872e-05
					CHANNELS 6 Xposition Yposition Zposition Zrotation Xrotation Yrotation 
					JOINT Toes_L
					{
						OFFSET 11.7543 0.0 0.0
						CHANNELS 6 Xposition Yposition Zposition Zrotation Xrotation Yrotation 
						End Site
						{
							OFFSET 0.0 0.0 0.0
						}
					}
				}
			}
		}
		JOINT UpperLeg_R
		{
			OFFSET -2.19251 6.46944 0.0
			CHANNELS 6 Xposition Yposition Zposition Zrotation Xrotation Yrotation 
			JOINT LowerLeg_R
			{
				OFFSET -39.0811 -0.00228153 -0.0401928
				CHANNELS 6 Xposition Yposition Zposition Zrotation Xrotation Yrotation 
				JOINT Foot_R
				{
					OFFSET -40.9854 0.0 0.0
					CHANNELS 6 Xposition Yposition Zposition Zrotation Xrotation Yrotation 
					JOINT Toes_R
					{
						OFFSET -11.7543 0.0 0.0
						CHANNELS 6 Xposition Yposition Zposition Zrotation Xrotation Yrotation 
						End Site
						{
							OFFSET 0.0 0.0 0.0
						}
					}
				}
			}
		}
	}
}
MOTION
Frames:	4
Frame Time:	0.0333333
0.000000 0.000000 0.000000 0.000000 0.000000 -0.000000 0.393383 92.795300 -0.719359 88.170700 -10.529500 3.503450 15.735700 0.000005 -0.000001 98.542000 86.827900 -98.691100 8.984550 -0.406207 -0.000000 -1.490930 0.954174 -0.285769 16.377300 -0.000001 -0.000001 4.825420 -1.152330 4.476820 6.456720 -0.000001 -0.000000 8.648010 0.204961 -4.255240 12.994200 -0.242716 4.980390 -90.419800 1.273190 -71.749800 5.348090 -0.000007 -0.000001 -68.836300 38.437900 -9.824000 24.328600 0.000019 0.000005 3.366560 8.712090 -21.224200 22.291600 -0.000001 0.000005 3.861890 5.485780 -5.971300 12.994500 -0.242716 -4.980390 88.335400 5.191110 -72.193600 -5.348130 -0.000001 -0.000004 -67.361000 -13.482600 -70.396700 -24.328900 0.000322 -0.000009 20.278800 -5.810470 -105.323000 -22.291500 -0.000108 -0.000004 20.292500 5.225850 2.062590 -2.192480 -6.469440 -0.000000 -175.832000 -11.774400 0.007899 39.081100 -0.000007 -0.000012 -0.079151 0.236464 18.506800 40.985400 -0.000006 -0.000013 -0.927220 -1.081350 -64.669800 11.754300 -0.000000 0.000003 -0.000000 -0.000002 -16.577600 -2.192510 6.469440 -0.000001 178.792000 5.788410 -178.770000 -39.081100 -0.002282 -0.040193 -0.040503 0.165650 14.821600 -40.985400 0.000008 0.000006 1.160490 10.348100 -62.828900 -11.754300 -0.000006 -0.000006 -0.003530 -0.046461 -18.462800
0.000000 0.000000 0.000000 0.000000 0.000000 -0.000000 0.377165 92.797700 -0.758275 88.188600 -10.382300 3.528200 15.735700 0.000005 -0.000001 98.511400 86.785100 -98.632800 8.984550 -0.406207 -0.000000 -1.406010 0.961170 -0.231041 16.377300 -0.000001 -0.000001 4.767100 -1.179480 4.538430 6.456720 -0.000001 -0.000000 8.748660 0.156689 -4.352140 12.994200 -0.242716 4.980390 -90.414200 1.260100 -71.804900 5.348090 -0.000007 -0.000001 -68.879400 38.403100 -9.686340 24.328600 0.000019 0.000005 3.370310 8.781480 -21.093800 22.291600 -0.000001 0.000005 3.967290 5.486150 -5.985350 12.994500 -0.242716 -4.980390 88.342800 5.159500 -72.165800 -5.348130 -0.000001 -0.000004 -67.050500 -13.649100 -70.671900 -24.328900 0.000322 -0.000009 20.334400 -5.764520 -105.164000 -22.291500 -0.000108 -0.000004 20.252100 5.222960 2.136750 -2.192480 -6.469440 -0.000000 -175.821000 -11.791000 -0.015147 39.081100 -0.000007 -0.000012 -0.078535 0.234580 18.510100 40.985400 -0.000006 -0.000013 -0.910569 -0.926370 -64.628900 11.754300 -0.000000 0.000003 -0.000000 -0.000002 -16.577600 -2.192510 6.469440 -0.000001 178.791000 5.851450 -178.772000 -39.081100 -0.002282 -0.040193 -0.040725 0.166256 14.841500 -40.985400 0.000008 0.000006 1.164030 10.279500 -62.823700 -11.754300 -0.000006 -0.000006 -0.003629 -0.047521 -18.505900
0.000000 0.000000 0.000000 0.000000 0.000000 -0.000000 0.351986 92.807100 -0.809291 88.209800 -10.136000 3.505590 15.735700 0.000005 -0.000001 97.981500 86.766200 -98.082300 8.984550 -0.406207 -0.000000 -1.360380 0.905876 -0.190601 16.377300 -0.000001 -0.000001 4.754140 -1.224020 4.575290 6.456720 -0.000001 -0.000000 8.760620 0.175569 -4.395190 12.994200 -0.242716 4.980390 -90.395100 1.205350 -71.851900 5.348090 -0.000007 -0.000001 -68.952000 38.427500 -9.538930 24.328600 0.000019 0.000005 3.384940 8.853440 -21.021600 22.291600 -0.000001 0.000005 3.824060 5.486360 -5.993390 12.994500 -0.242716 -4.980390 88.337700 5.157120 -72.106800 -5.348130 -0.000001 -0.000004 -66.546400 -13.789000 -70.851100 -24.328900 0.000322 -0.000009 20.269100 -5.648370 -104.923000 -22.291500 -0.000108 -0.000004 20.341800 5.221480 2.174700 -2.192480 -6.469440 -0.000000 -175.839000 -11.684700 -0.097984 39.081100 -0.000007 -0.000012 -0.079114 0.236798 18.474300 40.985400 -0.000006 -0.000013 -0.900295 -0.826411 -64.547200 11.754300 -0.000000 0.000003 -0.000000 -0.000005 -16.577700 -2.192510 6.469440 -0.000001 178.787000 6.048630 -178.782000 -39.081100 -0.002282 -0.040193 -0.040069 0.164354 14.792100 -40.985400 0.000008 0.000006 1.174520 10.238200 -62.786900 -11.754300 -0.000006 -0.000006 -0.003499 -0.046128 -18.449200
0.000000 0.000000 0.000000 0.000000 0.000000 -0.000000 0.326363 92.816700 -0.861040 88.263800 -9.893830 3.503560 15.735700 0.000005 -0.000001 97.547300 86.737200 -97.632900 8.984550 -0.406207 -0.000000 -1.296430 0.863674 -0.161336 16.377300 -0.000001 -0.000001 4.736080 -1.230350 4.634400 6.456720 -0.000001 -0.000000 8.606450 0.219978 -4.450580 12.994200 -0.242716 4.980390 -90.407700 1.242460 -71.831400 5.348090 -0.000007 -0.000001 -68.889500 38.534000 -9.462990 24.328600 0.000019 0.000005 3.368470 8.803650 -21.035200 22.291600 -0.000001 0.000005 3.888760 5.487110 -6.022760 12.994500 -0.242716 -4.980390 88.330100 5.150900 -72.010100 -5.348130 -0.000001 -0.000004 -65.824000 -13.868800 -70.679300 -24.328900 0.000322 -0.000009 20.183300 -5.546910 -104.733000 -22.291500 -0.000108 -0.000004 20.318500 5.222950 2.137130 -2.192480 -6.469440 -0.000000 -175.887000 -11.539300 -0.128378 39.081100 -0.000007 -0.000012 -0.077941 0.234450 18.388900 40.985400 -0.000006 -0.000013 -0.893892 -0.725918 -64.453900 11.754300 -0.000000 0.000003 -0.000000 -0.000004 -16.577600 -2.192510 6.469440 -0.000001 178.771000 6.164020 -178.808000 -39.081100 -0.002282 -0.040193 -0.039502 0.162130 14.798600 -40.985400 0.000008 0.000006 1.215010 10.094000 -62.781700 -11.754300 -0.000006 -0.000006 -0.003522 -0.046373 -18.459200
